<svg xmlns="http://www.w3.org/2000/svg" viewBox="0 0 116 44" width="232" height="88" preserveAspectRatio="xMidYMid meet">
  <rect x="2" y="1" width="112" height="42" rx="3" fill="#0d2f6e"/>
  <path d="M 5.0 22.0 Q 16.4 29.7 27.7 35.9 L 27.7 22.0 Z" fill="none" stroke="#4fa8ff" stroke-width="1.2"/><path d="M 5.0 22.0 Q 16.4 29.7 27.7 35.9 L 27.7 22.0 Z" transform="translate(0 44) scale(1 -1)" fill="none" stroke="#4fa8ff" stroke-width="0.7" opacity="0.5"/>
  <path d="M 27.7 22.0 L 27.7 35.9 L 68.1 35.9 L 68.1 22.0 Z" fill="none" stroke="#4fa8ff" stroke-width="1.2"/><path d="M 27.7 22.0 L 27.7 35.9 L 68.1 35.9 L 68.1 22.0 Z" transform="translate(0 44) scale(1 -1)" fill="none" stroke="#4fa8ff" stroke-width="0.7" opacity="0.5"/>
  <path d="M 35.3 22.0 L 35.3 35.9 L 39.1 35.9 L 39.1 22.0 Z" fill="none" stroke="#4fa8ff" stroke-width="1.2"/><path d="M 35.3 22.0 L 35.3 35.9 L 39.1 35.9 L 39.1 22.0 Z" transform="translate(0 44) scale(1 -1)" fill="none" stroke="#4fa8ff" stroke-width="0.7" opacity="0.5"/>
  <path d="M 47.9 22.0 L 47.9 35.9 L 51.7 35.9 L 51.7 22.0 Z" fill="none" stroke="#4fa8ff" stroke-width="1.2"/><path d="M 47.9 22.0 L 47.9 35.9 L 51.7 35.9 L 51.7 22.0 Z" transform="translate(0 44) scale(1 -1)" fill="none" stroke="#4fa8ff" stroke-width="0.7" opacity="0.5"/>
  <path d="M 68.1 22.0 L 68.1 35.9 L 75.7 35.9 L 75.7 22.0 Z" fill="none" stroke="#4fa8ff" stroke-width="1.2"/><path d="M 68.1 22.0 L 68.1 35.9 L 75.7 35.9 L 75.7 22.0 Z" transform="translate(0 44) scale(1 -1)" fill="none" stroke="#4fa8ff" stroke-width="0.7" opacity="0.5"/>
  <path d="M 75.7 22.0 L 75.7 32.3 L 111.0 32.3 L 111.0 22.0 Z" fill="none" stroke="#4fa8ff" stroke-width="1.2"/><path d="M 75.7 22.0 L 75.7 32.3 L 111.0 32.3 L 111.0 22.0 Z" transform="translate(0 44) scale(1 -1)" fill="none" stroke="#4fa8ff" stroke-width="0.7" opacity="0.5"/>
  <path d="M 95.9 32.3 L 106.5 68.1 L 111.0 68.1 L 111.0 32.3 Z" fill="none" stroke="#4fa8ff" stroke-width="1.2"/><path d="M 95.9 32.3 L 106.5 68.1 L 111.0 68.1 L 111.0 32.3 Z" transform="translate(0 44) scale(1 -1)" fill="none" stroke="#4fa8ff" stroke-width="0.7" opacity="0.5"/>
  <line x1="5" y1="22" x2="111" y2="22" stroke="#3d7fd4" stroke-width="0.5" stroke-dasharray="3 2" opacity="0.6"/>
</svg>
